<svg
   xmlns:dc="http://purl.org/dc/elements/1.1/"
   xmlns:cc="http://web.resource.org/cc/"
   xmlns:rdf="http://www.w3.org/1999/02/22-rdf-syntax-ns#"
   xmlns:svg="http://www.w3.org/2000/svg"
   xmlns="http://www.w3.org/2000/svg"
   xmlns:sodipodi="http://sodipodi.sourceforge.net/DTD/sodipodi-0.dtd"
   xmlns:inkscape="http://www.inkscape.org/namespaces/inkscape"
   xml:space="preserve"
   width="100%"
   height="194mm"
   style="shape-rendering:geometricPrecision; text-rendering:geometricPrecision; image-rendering:optimizeQuality; fill-rule:evenodd"
   viewBox="0 0 220000 194010"
   id="svg2"
   sodipodi:version="0.32"
   inkscape:version="0.45.1"
   sodipodi:docname="Brazil Blank Map.svg"
   inkscape:output_extension="org.inkscape.output.svg.inkscape"
   sodipodi:docbase="C:\Users\Ado\Pictures"><metadata
   id="metadata113"><rdf:RDF><cc:Work
       rdf:about=""><dc:format>image/svg+xml</dc:format><dc:type
         rdf:resource="http://purl.org/dc/dcmitype/StillImage" /></cc:Work></rdf:RDF></metadata><sodipodi:namedview
   inkscape:window-height="750"
   inkscape:window-width="1264"
   inkscape:pageshadow="2"
   inkscape:pageopacity="0.0"
   guidetolerance="10.0"
   gridtolerance="10.0"
   objecttolerance="10.0"
   borderopacity="1.0"
   bordercolor="#666666"
   pagecolor="#ffffff"
   id="base"
   inkscape:zoom="0.54844216"
   inkscape:cx="6.5212891"
   inkscape:cy="274.51342"
   inkscape:window-x="0"
   inkscape:window-y="14"
   inkscape:current-layer="svg2" />
 <defs
   id="defs4">
  <style
   type="text/css"
   id="style6">
   
    .str0 {stroke:#1F1A17;stroke-width:76}
    .str2 {stroke:#1F1A17;stroke-width:281}
    .str1 {stroke:#72706F;stroke-width:352}
    .str3 {stroke:#1F1A17;stroke-width:704}
    .fil3 {fill:none}
    .fil0 {fill:#BFD8FF}
    .fil1 {fill:#F4E2BA}
    .fil2 {fill:#FFF3E3}
    .fil4 {fill:#00FF00}
    .fil5 {fill:#FF9900}
    .fil6 {fill:#Ff0000}
    .fil7 {fill:#00FFFF}
    .fil8 {fill:#FFFF00}
   
  </style>
 </defs>

<g
   id="Terreno"
   style="fill:none;stroke:none">
  <path
   class="fil0"
   d="M627 220000l0 -220000 2200000 0 0 220000 -220000 0z"
   id="path9"
   style="fill:none;stroke:none" />




<path
   class="fil6 str0"
   d="M114452 124015l-32 -65 64 -96 -96 -96 0 -33 32 -32 32 -161 65 -128 32 -32 96 -258 32 -64 65 -32 32 0 96 32 33 0 64 0 0 -64 0 -97 -32 -64 -161 -225 0 -64 64 -65 65 -32 160 65 290 96 32 0 64 -64 0 -32 -64 -97 -161 -129 -32 -32 32 -64 0 -32 64 -64 32 -129 65 -97 0 -96 32 -64 0 -32 64 -97 129 -129 96 0 97 -128 32 -64 0 -33 0 -64 32 -64 257 -65 32 -64 -32 -96 32 -32 65 0 64 0 289 0 65 -65 128 -64 0 -32 33 0 64 -129 128 -193 0 -128 -32 -32 32 -97 -64 -161 0 -64 64 -32 129 -64 32 0 97 -129 96 -257 0 -32 32 -33 97 -32 64 0 32 -32 97 -257 160 -225 65 -65 64 -32 32 -32 64 -32 97 -32 161 32 96 0 161 -96 386 64 96 -97 65 -64 64 -161 32 -32 64 0 161 0 32 64 193 33 129 0 96 -65 32 0 33 32 32 33 64 0 64 64 97 0 96 32 32 0 33 0 32 -64 32 -65 64 -32 64 32 33 0 64 -32 96 -64 65 -32 64 0 32 0 97 64 32 0 32 -64 -97 -97 33 -32 0 -32 96 -32 257 -32 65 32 32 -32 32 0 0 -32 32 -32 -32 -129 32 -32 32 0 65 -32 96 32 32 0 32 32 0 32 0 97 0 64 32 96 226 225 64 161 32 0 64 32 97 -32 32 -32 32 -97 97 -96 64 -161 32 0 96 32 33 -32 32 -96 32 -32 32 -32 32 0 97 -33 32 -96 64 -129 64 -64 65 -32 32 -32 0 -33 0 -32 -97 -64 0 -32 33 -32 96 32 129 -32 32 -32 128 -97 97 0 0 32 -32 32 0 33 64 0 32 32 64 0 0 32 129 -64 32 -65 0 -64 97 -64 96 32 32 0 33 -64 32 0 0 -97 32 0 32 -32 64 -32 97 -97 96 0 32 65 129 0 32 64 161 32 32 32 32 161 64 0 65 -96 64 -33 64 33 97 -65 96 32 97 -32 64 32 64 -32 65 0 64 0 64 0 0 -32 0 -32 32 -32 193 32 33 0 32 -32 96 0 32 32 0 64 32 32 97 0 64 65 97 -65 32 0 32 33 -32 64 32 32 161 -96 64 32 64 -32 33 0 32 0 0 64 32 0 161 0 64 -32 32 32 32 0 32 0 32 64 65 0 32 0 0 -32 -64 -32 0 -32 128 -97 65 -64 32 0 32 0 32 64 129 0 0 65 32 32 128 0 97 32 64 0 0 64 64 64 0 65 97 32 64 32 97 32 32 0 64 0 32 -32 33 -64 32 0 32 32 32 64 64 32 65 32 0 33 32 32 32 0 96 -65 0 33 0 64 0 64 32 0 33 0 0 97 32 32 32 -32 64 -32 32 0 33 -97 32 -32 128 64 33 -32 32 32 32 0 32 -32 0 -32 -32 -32 32 -32 0 -33 32 -32 32 32 65 33 32 0 0 -33 -32 -32 32 -64 0 -64 64 -32 32 -33 32 33 32 0 -32 32 32 32 33 0 32 32 64 -32 32 -32 65 0 0 -32 -33 -33 33 -64 32 -32 32 0 -32 -64 128 0 0 64 32 0 33 0 64 -64 0 -32 32 0 32 0 65 -161 32 0 32 32 0 32 64 -32 32 0 0 -32 65 -65 -65 -32 -32 -64 -32 -32 32 -32 64 -33 -32 -64 65 -32 0 32 32 32 0 -32 0 -32 0 -32 64 -64 32 0 32 0 -64 -33 64 0 33 -32 32 -64 32 0 64 -64 32 0 0 32 0 96 0 32 32 33 0 -33 0 -32 65 -32 0 -64 64 -32 32 32 32 -32 33 0 -33 -32 33 -33 0 -32 64 32 0 -32 32 0 64 -64 32 0 33 32 32 0 0 -32 -32 -32 32 -65 64 0 0 33 32 -33 65 0 0 -32 -65 0 65 -32 0 -64 32 32 32 -32 64 0 0 -32 64 -33 0 -32 -32 0 0 -64 65 32 32 -32 96 -64 32 0 65 32 -32 -64 32 0 32 0 32 -33 0 -64 -32 -64 -32 0 32 0 -32 -32 32 -32 -32 -33 -65 -32 0 -32 -32 0 0 -64 0 -32 32 0 0 -65 -96 -64 0 -64 -32 0 0 -33 -32 -32 32 0 -32 -32 32 -32 -32 0 32 -32 -32 -32 -33 0 -32 -32 32 0 -32 -33 32 -64 -32 -32 0 -32 0 -32 -32 -65 -32 -32 32 -32 32 -32 32 -32 33 0 -65 -32 32 0 33 -33 -33 -32 0 -32 65 -32 0 -32 32 -32 0 -32 -32 -33 0 -32 32 -32 64 -64 32 -65 0 -64 33 -32 32 0 0 -32 64 0 64 -64 0 -33 0 -32 -32 0 0 -32 0 -64 64 0 0 -97 0 -64 -32 -64 -64 -97 -96 -96 -33 -65 -32 -64 -64 -32 -97 32 -96 -32 -64 -32 -65 0 -64 32 -161 32 -32 32 -32 0 -32 0 -32 -128 -65 96 -32 -32 -32 0 0 -32 0 -97 0 -64 -32 -32 -32 -64 -97 -33 -32 0 32 -64 65 0 0 -64 0 -32 -33 0 0 -32 -32 -33 65 0 0 -32 -33 0 0 -32 -32 -32 32 0 0 -32 0 -32 33 32 32 -32 0 -97 -32 -32 96 -64 -32 0 0 -65 0 33 64 32 0 32 32 0 0 32 97 -32 32 64 32 -32 -32 -32 64 0 0 32 32 -32 -64 -64 32 0 0 -33 32 0 33 -32 64 32 0 -32 -32 -64 32 -32 0 -32 -32 -32 -32 0 0 -33 96 -32 0 -32 -32 -32 64 0 0 -32 0 -32 65 0 32 32 32 -32 -32 -33 32 0 -32 -64 32 -32 32 0 64 0 0 -32 0 -32 32 -32 0 32 33 0 0 -32 -33 -33 -32 -32 32 0 33 0 32 0 -65 -32 33 -32 -33 -32 97 0 32 -32 -32 -33 32 -32 0 32 64 -32 33 65 32 -33 -32 -32 64 -32 64 32 -32 -64 32 -32 0 -32 32 0 -32 -32 32 -65 32 65 0 -97 33 32 0 -32 32 32 32 0 0 -96 0 32 32 -32 32 32 32 0 -32 0 0 -32 32 0 0 -32 97 32 -32 -32 32 -33 32 33 32 -33 -32 0 0 -32 32 0 32 -32 0 32 32 -32 -32 0 0 -96 32 0 0 32 65 32 -32 -32 32 0 0 -32 32 -32 0 32 0 -32 32 32 0 -32 32 0 -32 -33 32 0 32 0 -32 -32 64 -32 0 -32 -64 32 0 -32 32 0 0 -32 -64 0 96 -32 33 -33 -33 -32 -64 -32 0 -32 -32 32 -32 -32 32 -32 -64 -32 32 -32 -32 -33 -32 33 0 -33 -33 -32 97 -32 -32 -32 -32 0 -33 -64 -32 0 -64 32 32 -65 -32 0 -32 -32 32 0 32 -32 -32 0 0 -32 -32 0 -32 -64 64 0 0 -32 -32 -97 64 -64 -96 32 0 -32 32 -32 -64 -33 0 -32 0 -32 0 -32 0 -32 0 -32 -65 0 0 -65 32 0 -32 0 -32 -32 32 -64 32 -32 -32 -32 32 0 0 -33 0 -64 -64 -32 -32 0 -32 0 32 -32 0 -97 -32 33 -32 -33 64 -32 -32 -32 -32 0 32 0 -32 -64 -33 32 -32 32 -32 -32 0 -64 -32 0 0 -32 0 -33 -32 33 0 -65 -32 0 -32 32 0 -32 -33 -64 -32 32 32 -64 -32 -32 0 32 -64 64 -32 -32 32 -32 -32 -32 32 0 -32 0 0 -33 -65 0 0 -32 -64 32 0 33 -32 0 0 -33 0 -64 -64 0 0 32 -32 -32 0 -32 -33 0 -64 0 32 -32 -32 0 32 -32 -32 0 32 -33 -32 -32 -32 32 -32 -32 0 32 -32 -32 32 -32 -65 0 0 -64 -32 -64 -32 -33 0 -32 0 -64 0 -96 32 -33 32 -64 65 -32 32 -97 -32 -128 32 -32 32 -33 64 -32 97 -160 32 -65 32 0 32 -96 32 -32 0 -65 33 -32 -33 -32 33 -64 64 -32 0 -33 32 0 32 -96 -32 -97 32 0 -32 -32 -32 -32 32 0 -32 -64 -32 0 32 -32 0 -32 -32 -33 -32 0 32 -32 -32 -32 32 -32 -32 0 0 -32 -33 -32 65 -32 0 -33 32 0 -32 -32 32 -32 0 -32 0 -32 0 -32 32 32 0 -32 32 0 0 32 32 -32 0 -33 33 0 0 -32 -33 -32 33 -32 0 -32 0 -32 0 -33 -33 0 33 -32 -33 0 65 -32 0 -64 0 32 0 -32 32 0 32 0 0 -32 32 32 0 -32 0 32 97 0 32 32 64 -32 32 0 32 0 33 0 0 -32 32 -32 32 -33 0 -32 32 0 0 -32 32 0 32 0 0 -32 0 -32 32 32 33 0 32 -32 -32 0 32 0 -32 -32 32 0 -32 0 0 -32 32 0 -32 0 32 -65 32 32 0 -32 32 0 0 -32 32 0 32 -32 -32 0 32 0 32 32 -32 64 65 -32 64 65 32 32 32 -32 32 32 33 -32 128 -97 450 -96 643 -161 65 0 0 -32 32 -32 0 -65 -97 -161 33 -32 -33 -32 65 -128 -65 -161 0 -97 -96 -96 -64 -129 32 -161 -32 -64 32 -64 0 -32 -129 -32 0 -33 -32 0 -64 -64 -97 -32 -128 -97 0 -64 0 -161 64 -193 0 -192 96 -129 65 -64 64 -32 96 -33 65 -64 0 -32 -97 -32 65 -65 64 0 32 -128 -161 -193 -96 0 0 -225 -32 0 -32 0 -33 32 -64 64 -64 -128 32 -32 -32 -97 96 -129 32 -96 65 -129 32 -64 32 -32 -64 -32 0 -65 -65 -32 -64 -64 0 -64 32 -32 257 -161 33 -65 160 33 193 32 129 64 129 32 128 65 97 32 128 96 65 32 64 32 96 -32 32 0 65 -32 64 32 64 -64 32 -32 33 0 64 -64 32 0 64 32 33 -32 -33 -129 -32 -32 0 -32 -64 -33 32 -96 32 -32 0 -32 0 -32 -64 -33 -32 -32 0 -64 -32 -64 32 -161 32 -64 64 -161 -64 -97 -32 0 -97 -32 0 -32 0 -32 -32 -64 0 -65 97 -64 0 -96 32 0 96 -33 32 -32 33 -32 -33 -64 33 -65 64 33 96 -33 0 33 33 96 96 0 64 97 129 64 128 128 33 0 32 33 32 0 96 32 0 64 65 0 0 96 0 65 32 32 64 0 -32 96 -32 33 0 32 -32 64 32 0 32 32 64 0 0 64 33 33 128 0 64 -33 65 0 32 97 64 0 0 -32 32 0 129 64 96 -96 -32 -97 32 0 0 32 65 65 32 0 32 -33 64 0 33 65 32 0 64 0 32 -32 32 -129 65 32 64 -96 32 -65 32 0 0 33 64 0 97 96 -32 129 64 0 32 64 97 32 0 97 0 128 -32 32 0 32 0 161 -161 161 -32 32 0 64 -65 33 0 64 -64 32 -32 64 0 33 32 32 0 64 -32 32 0 32 -64 32 -65 0 0 33 -64 0 -32 32 -97 0 0 64 97 64 0 97 32 64 32 -32 0 32 32 64 129 -32 -32 -32 32 -32 32 -32 32 -32 0 -65 32 -32 0 -32 0 -32 97 0 32 0 32 0 64 0 33 -97 -33 -32 65 0 0 -96 64 -64 161 -33 225 129 32 -32 32 0 0 -32 64 0 33 -32 32 0 0 -65 32 0 0 -32 32 0 32 -32 65 32 64 -32 64 32 64 0 33 0 64 0 32 -32 0 32 0 -32 32 0 0 -32 32 0 0 -32 0 -33 33 33 0 -33 64 0 32 0 0 -32 32 0 32 0 0 -32 65 -96 32 -65 -32 -32 32 -64 32 0 0 32 32 -96 32 32 0 32 65 -32 32 -32 32 -97 32 0 0 -32 32 0 0 -64 32 32 0 -32 97 -97 0 -32 64 0 32 -32 32 0 33 0 64 64 32 0 64 -32 65 64 96 -64 32 0 0 32 32 0 0 -32 33 -32 -33 0 65 -32 32 -65 32 0 0 33 32 0 97 -65 96 -96 32 0 0 -32 0 -32 32 -33 0 -32 32 32 33 0 0 -32 0 -32 96 0 32 -64 32 32 33 -64 -33 -65 33 32 32 0 0 -32 32 0 64 0 -32 -32 0 -32 64 -32 33 -64 32 32 32 -65 32 -32 32 32 64 -64 0 -64 65 -32 32 -65 96 33 0 -33 32 0 33 0 0 -32 64 -32 -32 32 64 32 289 33 33 0 32 -33 64 -96 64 -129 33 -32 0 32 32 -32 0 -64 193 -65 0 -32 64 32 0 -32 0 -32 64 0 -32 -32 64 -64 33 32 32 -32 32 0 0 -32 32 0 96 -33 0 -32 33 0 0 -32 64 0 32 -32 64 0 0 -32 0 32 65 -96 32 0 32 0 32 0 0 -65 -32 32 -32 0 0 -32 0 -32 32 32 0 -32 0 -64 32 -32 32 0 65 0 -33 -33 -32 0 32 -32 -32 -32 32 0 33 -32 -65 -32 0 -32 97 32 32 -32 -32 -33 64 0 32 0 0 -32 32 0 32 -32 65 0 32 0 0 -32 32 32 32 -32 0 -32 32 0 65 -32 0 -65 32 33 32 -65 0 32 32 0 32 0 0 -64 33 0 0 -64 32 0 0 -32 64 64 0 -64 32 32 32 -32 -32 -32 32 -65 32 0 33 32 32 -32 -32 0 32 -32 32 32 32 -96 32 0 32 -32 32 0 33 0 64 -65 32 -32 0 32 0 -32 32 0 32 0 0 -32 33 0 0 -32 64 32 0 -64 64 0 65 0 32 -33 0 33 32 -33 32 33 32 0 32 -33 32 -32 33 0 0 -32 32 32 32 -32 64 -32 64 -64 97 -32 32 -33 32 0 32 0 0 33 33 -33 0 -32 32 32 32 -32 32 0 32 -32 32 0 -32 -32 65 0 0 -32 96 -32 96 64 33 -32 32 0 32 0 32 0 96 0 33 64 0 -32 -33 0 33 -32 32 32 0 -32 0 -32 96 0 0 -32 0 -33 32 33 0 64 33 0 0 32 96 0 64 64 33 0 0 -64 128 32 0 64 -32 0 32 33 64 -33 33 -96 32 0 0 64 32 32 32 0 32 -32 0 32 32 0 0 -32 32 0 0 32 0 33 33 0 32 0 32 -33 0 33 32 0 32 32 0 -32 32 32 33 -65 64 0 0 -32 32 0 96 0 -32 0 65 32 0 33 32 -33 32 0 32 65 32 0 0 64 0 -64 32 0 33 64 32 -32 32 32 0 -32 32 0 32 32 0 -32 32 32 0 -32 32 0 33 32 0 -32 0 64 64 0 32 32 0 -32 32 32 65 -32 0 32 -33 0 33 32 32 -32 0 32 32 -64 64 32 32 0 -32 32 32 0 0 33 32 -33 33 65 64 0 32 32 -96 129 0 32 -65 64 -64 225 -32 97 -32 32 -129 289 -32 193 0 32 -32 97 0 32 0 32 32 -32 0 96 32 0 0 65 -64 32 64 32 -64 0 32 0 -32 32 32 0 -32 32 32 32 0 -32 32 0 0 64 32 0 32 33 65 0 193 64 96 0 32 32 32 0 33 0 32 32 128 0 32 32 33 33 0 32 -33 32 0 32 65 0 32 -32 64 0 0 32 32 0 33 0 32 32 32 32 161 33 64 32 32 0 64 -32 65 0 32 64 161 96 32 32 -32 0 0 65 32 64 32 0 32 -64 32 32 0 -64 65 0 32 -33 32 0 32 0 32 0 0 -32 -64 -64 32 -32 64 0 32 -32 -32 -65 32 -32 65 0 0 -32 32 -32 32 0 32 -32 32 32 97 -64 128 -65 33 0 64 0 64 -64 32 -32 32 0 65 -32 32 32 64 0 32 -32 0 -33 225 -32 33 0 96 0 32 -32 32 0 65 32 0 -32 128 64 97 0 64 65 32 0 0 -32 32 32 65 32 32 64 32 -32 32 0 32 -64 32 64 33 0 64 -32 32 0 0 32 97 64 32 -32 96 32 32 -32 97 65 64 0 32 32 32 96 0 32 33 0 32 33 0 -33 32 97 32 0 0 -32 32 32 32 32 32 0 33 -32 32 32 -32 0 0 32 64 32 32 65 64 0 0 32 32 32 129 96 64 65 161 32 32 64 65 64 64 33 0 32 64 -32 -32 0 64 0 0 32 33 0 -33 32 65 32 32 32 32 -32 64 64 0 -32 32 64 33 0 -33 0 97 65 64 64 32 -64 65 -65 64 33 32 32 32 32 65 96 32 0 96 33 0 64 65 0 32 0 96 64 97 129 160 0 0 64 -32 129 129 32 96 64 97 -32 32 32 64 97 97 -97 32 0 32 64 32 33 129 32 32 64 32 -32 64 64 65 -64 96 -64 65 32 64 -32 32 32 64 -32 0 -65 32 0 33 65 64 0 0 64 32 32 32 32 64 32 65 65 32 96 32 0 0 97 32 0 32 0 65 -33 193 -64 160 -32 33 32 64 0 128 64 97 -32 0 -64 64 0 32 -32 65 0 32 -32 64 -32 32 -97 65 0 64 -32 129 -32 32 -32 32 0 1157 1061 450 418 354 353 129 97 0 32 96 675 32 515 33 0 96 0 64 -33 32 0 65 65 96 -32 65 -33 96 0 96 65 33 0 96 32 64 32 65 32 32 -32 32 -96 32 0 129 -33 96 -96 97 32 96 -64 129 0 96 -97 32 0 0 -96 33 -32 32 -32 0 -65 64 65 64 0 32 0 33 0 64 0 32 160 64 0 32 0 129 -32 32 -32 32 32 33 -64 32 0 0 -97 0 -32 64 0 0 32 129 65 32 64 -32 64 32 65 64 32 97 -32 32 -32 32 0 -32 -65 32 -64 64 0 64 -32 33 0 0 32 32 0 64 96 0 33 97 32 64 128 32 0 32 -64 32 0 65 96 32 0 32 33 0 32 -32 32 64 32 0 32 129 32 -32 65 32 64 64 0 64 -32 97 0 0 -64 32 -65 64 -32 32 32 33 32 32 -32 64 -96 32 32 32 0 97 96 32 129 32 32 0 -32 64 64 0 -32 33 32 64 0 32 32 32 -32 64 -32 33 32 32 0 32 32 32 -32 32 0 32 0 97 0 64 -32 32 32 33 -32 32 0 32 0 64 -32 32 0 32 64 0 32 33 0 0 65 32 0 0 32 32 0 0 64 32 0 0 32 32 -32 97 65 32 0 0 128 -65 32 33 32 32 -32 0 32 32 0 0 -32 32 0 32 0 32 -32 0 64 33 0 64 -32 32 32 32 0 32 0 0 -32 65 -32 0 32 -33 65 33 32 32 0 32 -65 32 0 -32 97 0 -32 0 64 -32 0 0 32 32 -32 32 32 0 32 32 33 -32 0 0 32 64 0 33 32 -33 0 33 32 32 0 32 0 -32 32 32 0 0 32 32 0 0 -32 32 0 32 64 32 0 0 33 33 0 0 -33 64 0 0 65 96 0 0 -65 33 0 128 0 32 33 32 0 -32 0 -64 96 0 32 64 0 97 97 0 64 64 32 32 64 0 65 65 0 0 64 32 32 0 65 -97 64 0 32 -32 0 -32 -32 -32 0 32 64 32 0 32 64 -32 129 -64 32 0 32 -65 32 0 33 -96 128 32 65 32 32 32 96 -96 0 -32 32 -64 33 -33 128 -32 0 -32 -32 -32 0 0 -32 -32 0 -32 32 0 64 -65 32 0 33 -32 32 -32 32 -64 161 -32 64 0 32 -33 97 -64 0 0 64 -32 64 -64 32 -33 -64 -32 0 32 -64 -32 -65 -32 65 -32 96 -32 65 -32 0 -65 128 -96 97 -32 32 -32 0 0 64 -33 0 33 32 32 0 0 97 32 0 0 64 0 32 -64 0 -97 -32 -32 -32 0 32 -64 0 -97 -64 -32 0 -32 32 0 32 -32 -32 -32 32 -65 0 -64 129 0 32 -32 64 -32 161 -65 128 0 65 33 32 32 32 -32 64 0 97 -65 32 -64 161 -64 32 64 32 64 32 129 0 32 32 64 -32 65 32 0 65 32 32 0 64 32 32 -32 32 0 33 -64 0 0 32 -33 32 0 96 -32 65 -64 0 -32 -65 -65 65 -32 0 -32 32 -64 -65 -32 0 0 -32 -97 -64 -32 32 -96 32 -33 0 -32 32 -32 0 -64 -32 -32 0 -65 0 -32 -32 0 -32 -96 0 -65 32 0 97 -64 128 -64 161 -97 96 -32 0 -32 129 0 32 0 32 -96 193 0 65 0 32 64 0 0 32 -32 193 -65 96 33 161 96 32 0 65 -64 64 32 96 -32 32 -32 0 0 65 32 32 0 64 96 65 -128 32 -65 96 -32 0 0 64 -64 0 0 65 64 32 -64 64 32 32 0 65 0 32 0 32 -129 64 97 65 32 32 96 -32 65 32 64 64 161 32 0 32 0 32 64 97 32 0 0 64 65 0 0 97 -33 64 33 32 32 32 64 161 97 64 64 -64 96 0 -32 32 32 65 -32 0 0 32 0 64 64 32 33 64 64 -64 32 0 64 97 32 64 33 -97 0 -64 32 32 32 65 64 32 -32 64 32 32 65 32 32 33 0 96 32 32 32 0 32 97 32 32 97 -32 32 64 32 0 64 0 65 96 -32 65 32 64 -32 64 64 65 32 64 -32 64 32 -32 64 32 32 65 0 32 -160 225 -257 128 0 32 32 33 96 64 64 32 0 129 -128 -65 -64 -32 -33 0 -96 -64 0 -32 -64 32 -33 -64 -32 0 -64 -65 -64 0 -33 32 -64 -32 -32 32 -64 0 0 -32 -129 0 -64 0 -129 -32 -32 64 -96 -96 -97 0 -64 -96 -32 0 -97 64 -96 64 -97 0 0 97 -64 0 -64 0 0 32 0 32 -32 64 32 32 -65 33 0 64 -96 32 -32 64 -32 33 -65 -33 -32 33 -32 -33 -97 65 -32 -32 0 -65 -64 0 -64 0 -32 32 -65 -32 -32 0 -32 0 32 -96 -32 0 0 -32 -32 0 -64 32 32 -65 -32 -64 -33 0 -32 -32 -32 32 -32 32 -32 -32 -32 0 -97 129 -32 32 -32 -32 -32 0 -33 -65 -32 65 -32 0 -32 32 611 579 32 225 -128 32 -33 -32 -96 -32 -32 0 -65 0 -32 0 -32 -33 -32 0 0 -64 -64 -32 -65 0 0 -64 -32 32 -32 -32 0 32 -32 0 -32 32 -65 64 -32 0 -32 -32 -32 0 0 64 0 33 0 32 -32 0 -32 -32 -65 -33 -32 33 -32 96 -96 0 0 -64 -65 0 -32 96 -32 0 32 -64 -96 32 0 32 0 32 -65 0 -128 65 0 64 -32 32 0 32 32 32 0 33 -32 0 0 32 0 32 32 32 -161 129 -96 96 -33 32 0 129 33 32 0 97 0 64 0 32 -65 0 0 64 0 65 97 0 -65 32 -64 32 -64 96 32 32 418 33 129 0 160 32 32 0 0 32 0 32 -32 290 0 96 -32 0 -32 257 32 32 0 32 -32 33 -32 32 -32 0 0 32 64 32 -32 32 64 -32 0 32 32 0 -32 32 64 0 65 65 64 0 32 32 161 32 32 32 32 193 0 32 0 193 65 64 -33 33 65 32 0 32 0 32 -32 32 -33 32 -32 33 -32 -33 -32 33 -64 32 -290 0 -96 0 -161 0 -64 0 -65 0 -64 -97 0 -32 -32 -32 -32 -64 -64 32 -65 0 -32 0 -289 0 -65 96 33 65 -33 64 33 0 -33 32 33 32 32 0 64 97 32 -33 0 -32 0 -64 64 64 33 0 96 -32 32 32 32 65 0 32 33 0 32 0 64 32 32 64 32 32 0 65 32 0 33 32 96 32 0 32 64 0 0 32 33 65 32 0 0 32 32 32 32 0 32 0 32 0 32 -32 0 32 0 32 -32 0 -128 97 -65 0 0 64 -32 32 65 64 -33 65 33 32 32 0 0 64 96 0 32 64 32 -32 33 0 0 65 32 -33 0 65 0 32 32 0 64 0 32 32 33 32 0 32 32 0 32 32 0 65 64 0 -32 64 32 32 32 32 0 65 32 0 0 32 33 0 -33 32 33 32 0 64 -33 33 -32 0 0 64 32 32 -32 32 32 0 65 32 0 97 -65 0 -64 32 32 32 65 0 -33 32 0 32 33 0 32 0 32 0 32 33 -32 64 -32 0 -32 32 -33 0 -32 96 0 65 65 32 -33 32 0 32 -128 97 0 32 0 64 -32 32 0 32 32 33 0 64 64 32 -32 32 0 32 -96 129 0 32 -161 0 -97 -32 -96 -32 0 64 32 64 -32 97 32 64 32 65 0 32 -96 32 0 32 -97 0 0 64 -32 0 -32 0 -32 32 -32 0 -33 161 -32 32 -32 0 -32 0 -32 65 -64 32 -65 0 -32 32 -32 96 32 33 -32 32 0 64 0 32 -32 65 32 32 -64 32 0 64 64 32 32 65 -32 0 0 32 64 32 -32 64 -32 97 -32 0 32 64 0 32 -32 0 0 193 -32 32 -65 65 -32 -33 -96 33 0 64 -65 96 -32 0 -32 -32 -64 32 -129 0 -32 32 -32 129 -32 32 32 64 0 33 32 64 -64 64 0 97 -32 32 -33 32 0 32 -32 97 -32 32 0 64 -32 64 32 33 -64 64 32 0 -32 32 -32 64 -33 32 0 33 -32 96 -96 64 -32 -32 -32 32 0 33 -193 0 -997 0 -450 0 0 32 -32 32 0 32 0 129 -33 32 -32 96 32 32 -32 33 -96 0 0 32 -32 32 -65 32 -32 32 -32 32 -32 0 -32 0 32 65 -64 32 0 32 -33 96 65 0 0 33 64 160 161 32 0 65 0 64 0 161 -32 64 0 97 -32 32 32 96 0 32 0 33 -65 0 -32 32 0 32 -64 96 0 65 -32 32 -32 32 0 32 32 32 96 0 65 0 -33 65 33 32 0 -32 32 32 -32 32 -33 32 -32 0 32 32 -64 32 -32 65 -32 32 0 32 -32 32 -33 32 33 32 -33 33 -32 0 32 32 33 96 -33 0 0 -32 -64 0 0 64 0 32 0 33 -32 32 32 32 -32 32 -64 0 -32 32 -33 0 -32 0 -64 0 32 32 -64 129 64 64 -32 32 -32 33 -65 32 -32 32 32 32 -64 32 0 64 -32 33 32 32 -32 64 0 -32 -32 32 0 64 -97 -32 -32 32 -96 -32 -65 0 -32 32 -96 33 -97 0 -32 -33 -64 65 -32 32 0 32 -32 0 -33 -32 -64 32 -64 64 0 32 64 33 0 32 64 64 33 0 32 32 32 0 32 0 64 65 33 32 0 32 -65 0 -32 -32 0 32 0 32 0 32 -96 97 0 32 -65 0 0 64 -32 32 0 32 -128 0 0 65 0 64 -33 0 -32 64 -32 32 -32 33 0 32 -32 32 0 32 -32 0 64 129 -32 32 0 64 32 32 0 -32 32 32 -32 65 32 32 -32 32 -32 32 -64 32 -33 32 -32 33 0 128 -32 64 0 33 32 0 32 32 -64 32 32 32 -32 32 32 65 -64 32 0 32 -64 32 32 0 64 32 -32 32 -32 32 -65 0 -32 -32 -32 32 0 97 -32 32 0 32 0 32 -32 65 96 32 0 32 65 96 -33 33 -64 32 -32 96 -64 0 -33 32 0 32 -32 33 0 32 -96 32 0 32 32 32 -96 65 -33 32 -96 128 32 33 32 0 -64 64 32 32 32 0 65 0 0 64 32 32 32 0 32 -32 32 0 32 0 32 0 65 32 32 33 -32 0 32 64 32 -32 32 32 0 64 0 32 0 32 0 33 -193 64 0 32 -128 32 -97 0 -96 32 -32 0 -32 65 -322 96 -32 32 -322 129 -225 96 0 65 -64 32 -32 0 -32 0 -65 32 -128 32 -97 32 -32 32 -193 65 -193 96 -32 32 -129 65 -257 64 -161 64 0 33 -128 128 -193 64 -64 33 -33 0 -128 96 -32 0 -97 32 -64 32 0 32 32 33 -32 32 -64 96 -129 32 0 -32 -64 0 -65 0 -96 32 0 65 -64 32 -33 -64 -32 -97 0 -32 97 -64 0 -65 0 -64 -65 0 -32 0 -64 -32 0 -32 -32 0 -129 96 -32 -32 0 -32 -32 32 -32 0 -32 -32 -33 0 -32 -32 0 -32 -32 -33 -32 33 -32 -33 -32 33 -65 0 -96 32 -64 -32 -33 -33 -32 33 -64 0 -32 -33 -32 0 -65 33 0 32 -96 64 -129 96 -64 0 -32 33 -129 64 -64 0 -64 0 -65 0 0 -32 -32 -32 -32 0 -32 64 -161 32 -32 32 -32 -32 -64 -32 0 -97 -33 33 -32 0 -32 64 -32 0 0 32 0 32 -32 0 0 -64 -32 32 -65 -64 -32 0 -32 0 0 32 -64 0 0 64 -32 32 0 -32 -33 -64 -64 0 -32 32 -32 0 -65 0 -64 97 -32 -33 -32 0 0 -32 -64 -32 32 0 -32 -32 0 -32 -33 0 -32 0 -128 96 -33 0 -32 0 -64 32 -64 33 -65 -33 -32 33 -32 0 0 32 -32 -32 0 64 -64 0 -33 32 -192 64 -65 33 -32 0 -96 32 0 32 -33 0 -32 32 -32 0 -32 32 -64 -64 -97 0 0 32 -128 32 -33 0 0 64 -32 0 -32 33 0 -33 -64 -32 0 32 0 33 -64 32 -33 -32 0 32 0 32 0 64 -32 0 -32 0 -32 32 -32 -32 -32 64 -32 33 -33 0 -32 0 -32 0 -32 64 -64 32 -33 0 0 -32 -64 32 0 32 -64 32 -32 33 -33 -33 -32 33 -32 -129 0 32 -32 -32 -32 0 -32 0 -32 32 0 -32 -33 64 -64 0 -32 32 -32 -32 -64 0 -65 0 -32 -32 -64 64 -32 33 -33 0 -32 0 0 -65 -96 0 -32 0 -65 -32 -32 32 -32 0 -32 0 -32 65 0 32 0 32 -32 -32 -129 128 -96 32 0 33 -65 32 0 32 -64 0 0 -32 -97 32 -32 -32 -64 32 -32 -32 -32 0 -97 32 -32 32 0 64 -96 33 0 32 -65 64 0 32 -32 -32 -64 0 -64 -32 -65 32 -96 -64 -32 0 -65 64 -64 0 -64 32 -33 0 -32 32 -32 0 -32 32 -32 65 0 32 -64 32 -65 32 -32 0 -64 0 -32 -32 -32 0 -33 32 -64 32 -32 97 -64 0 -129 0 -96 64 -33 32 -128 -32 -32 0 -65 0 -64 0 0 -32 -64 32 -97 32 -96 65 -65 -33 -32 33 -64 32 -32 0 -32 32 -65 32 -32 0 -64 64 -32 33 0 32 32 32 -64 64 -129 32 -32 0 -64 32 -33 0 -160 97 32 32 -32 64 0 33 -32 0 -33 32 -96 -32 -161 32 -32 32 -64 0 -33 64 -64 0 -96 64 -32 0 -65 0 32 -96 -32 -32 -32 -32 -64 0 -32 -32 -32 -33 -33 0 -96 -64 -32 0 32 32 -64 161 -65 -32 -128 96 -32 0 -33 32 -32 0 -128 33 -33 -33 0 -32 33 -32 96 -64 -32 -64 -64 0 0 -65 -65 65 32 0 -32 32 -64 0 -64 96 -161 32 -64 32 -33 0 -64 -64 32 -32 0 -32 65 -64 -33 0 33 -65 32 0 -32 -64 0 -32 -65 -32 -96 64 -97 -32 -32 32 0 32 -32 32 -32 32 32 33 0 32 64 0 33 96 64 32 0 32 32 0 -96 33 -33 32 -64 -32 -64 0 0 32 -32 32 -33 0 0 32 -96 32 -32 32 -129 33 -32 128 64 64 33 0 96 -32 96 -32 33 0 96 0 32 0 -32 0 64 97 0 64 33 0 0 64 -33 32 -32 0 -32 65 0 32 32 32 32 32 33 0 0 32 -65 0 -32 -32 -32 0 -32 -64 -32 -32 -33 64 -64 0 32 161 0 32 -32 32 -64 32 -32 0 -32 -32 0 -64 -65 -32 0 32 -64 -32 0 32 -64 0 -33 0 -32 64 -32 0 0 64 0 32 -32 0 -64 33 -32 0 0 -65 0 -32 -33 0 0 -64 0 -32 -64 0 0 -32 32 -65 -32 0 -64 32 0 33 -64 64 -65 0 -32 32 -32 32 -64 32 -65 32 0 33 -64 32 -32 32 -97 -32 -96 64 -129 -32 -96 32 -64 64 -65 0 -64 65 -64 -32 32 -33 32 -96 0 -32 -32 -97 0 -32 -32 32 -161 32 -32 -32 -33 32 -160 65 -32 64 -33 -32 -64 0 0 -64 -32 0 -64 0 -65 96 -96 -32 -97 32 -32 32 -96 -32 -32 -64 -33 -32 0 -33 -32 0 0 -32 65 0 -33 -96 33 -32 -33 -32 0 -65 65 -128 64 -33 0 -32 32 0 0 -32 32 -32 0 -32 -96 0 -32 32 -65 -96 -32 0 0 -33 -32 33 -64 0 -97 -65 0 32 -64 -32 0 -32 -64 0 -32 -96 -65 0 -32 -32 32 -33 -32 -32 0 -32 32 -32 65 32 0 -32 96 -32 32 -32 65 32 32 -32 32 32 -32 32 32 0 64 -32 0 -65 -32 -32 -32 -32 -64 0 -33 -32 0 -32 97 -32 -97 -97 65 -64 -97 0 0 -64 97 -97 0 -64 -32 32 -33 0 -64 -32 0 -32 -64 0 0 -65 -64 0 -97 0 -32 -32 -64 32 0 -64 -161 -64 32 -32 0 -65 -64 -32 -33 0 0 -32 33 -32 -33 -32 -64 0 -32 32 0 -32 -32 -32 -64 0 -33 0 -64 -33 0 33 -96 -33 -32 -32 -33 0 0 -32 -96 -32 0 -32 32 -97 -32 -32 32 -64 -64 0 -32 -64 -33 0 0 -33 -32 0 0 -32 0 -32 -32 -32 0 -32 -32 0 0 -32 -32 0 -32 -33 32 0 64 -64 -32 -64 32 -32 -32 -32 0 -33 32 -32 32 -64 32 32 -32 -64 97 -65 -32 -32 64 -160 -32 -33 32 0 32 0 64 0 33 -96 128 -32 64 -64 0 -33 -64 0 -32 -96 -64 -32 -65 -65 -96 33 -64 -33 -33 0 -32 0 -32 0 -32 0 -32 0 -32 -32 0 -32 0 -32 32 0 32 32 64 -32 65 0 96 -32 0 -32 -64 -33 -65 -64 33 -64 32 0 0 -32 64 32 32 -32 0 -32 32 0 33 -33 96 65 32 0 0 -32 0 -33 0 -32 -32 -32 -32 -64 -32 0 -32 -32 -65 -97 0 -64 -64 -32 32 -65 -64 -64 32 -32 32 0 32 -32 32 -65 -32 -32 0 -32 -64 -96 -32 0 -32 0 -33 -65 33 -64 64 -32 0 -32 96 -97 -32 -64 32 0 33 -32 64 0 0 -32 0 -97 0 -32 0 -32 32 -64 -32 -65 0 -32 32 -32 0 -64 193 32 64 -32 0 -97 64 -32 33 0 -33 -64 33 -32 64 0 0 -65 64 -32 0 -32 -32 -32 32 -32 0 -32 32 -65 0 -32 33 -32 32 0 0 -32 -65 -65 -32 -32 -32 -64 32 -32 0 -64 65 -65 -33 -32 0 -64 -32 -32 0 -32 0 -33 -32 0 -32 0 -64 -32 -65 0 -64 -32 0 -32 -129 64 0 32 -64 -32 -32 -32 32 -32 -32 0 0 -32 -32 -32 -32 0 -32 -65 -33 -32 0 -32 0 -32 0 -32 0 -65 -64 0 -32 0 -32 65 -32 0 -33 32 -32 32 -64 96 -32 -64 -32 -32 0 32 -65 0 -96 -64 -32 -32 32 -65 -32 0 -65 0 -32 33 -32 32 -128 -32 -65 0 -32 32 0 32 -32 32 -64 0 0 32 -33 0 0 32 -96 32 -32 33 -32 0 -32 32 -65 0 0 32 -32 -32 -32 32 -64 -32 -33 32 -32 -32 -32 0 -32 0 -64 32 0 -32 -32 32 -33 -32 -32 0 -32 -32 32 0 0 -33 -32 -64 32 0 32 -64 -32 -64 32 -33 33 -32 -33 -32 -64 -32 -32 -64 0 -33 -32 -64 -32 0 32 -32 -64 -64 0 -32 0 -65 -33 -64 0 -32 -32 0 -32 -65 -64 33 0 -65 32 -32 0 -32 32 -32 -32 0 -97 0 -32 0 0 32 -32 -64 -64 -97 0 -32 -32 -32 32 -97 -97 -96 65 -32 0 -32 0 -32 64 0 0 -33 -97 -32 -32 -32 -32 0 32 -96 -32 -65 -32 -96 -32 -97 32 -32 0 -64 32 -97 -32 -32 -64 -32 -32 -64 -65 0 -32 -64 0 -65 -96 0 -65 -64 -64 -129 64 -160 65 -129 -65 -129 65 -32 32 -96 32 0 32 -32 32 -129 32 0 -32 -64 65 -65 0 -32 32 -32 64 32 161 0 0 -32 32 -32 32 -64 0 -65 32 -64 0 -32 0 -32 -64 -32 0 -65 0 -32 -64 -32 0 -32 0 -32 0 -33 -33 0 -64 -128 32 -32 -32 -65 0 -64 -32 0 -32 -64 -129 -32 -64 -33 -64 0 -97 -96 -96 -32 -32 -64 -65 0 -96 -65 0 -32 32 -32 0 -32 -32 0 0 -32 32 -33 -32 0 32 -32 -32 0 32 -32 -32 -32 32 -64 -32 0 0 -32 0 -33 0 -32 -32 -96 64 -32 -32 -33 32 0 0 -32 0 -64 32 0 0 -96 32 -65 32 0 65 -96 32 0 64 -161 0 -32 -64 -97 -32 -64 -32 0 0 -96 -33 -65 -32 0 -96 -32 -64 -128 -129 -33 -64 -64 -65 0 -64 -96 -129 0 -32 0 -32 -97 -129 -64 0 -64 0 -33 65 -32 0 -32 0 -32 -32 -64 -65 -65 -96 -96 0 -32 -32 32 -32 32 -65 0 -64 64 -129 0 -64 32 0 33 -129 0 -64 32 0 96 -96 97 -65 0 -64 32 -64 -64 -32 -33 -65 -64 0 -32 0 -32 -161 -129 -32 0 -96 32 -64 32 -97 -32 -161 0 -160 65 -65 -33 -32 0 -64 97 -32 32 0 32 0 32 0 33 32 0 32 32 0 32 -32 64 0 65 0 64 -32 64 -97 97 -32 0 -129 -65 -64 -96 -32 -161 -129 -96 -32 0 -32 32 0 161 -32 64 -32 64 -65 97 -96 -33 -32 97 -129 64 -96 0 -97 -32 -64 -64 -97 -32 -32 -97 -32 0 -32 0 -32 -32 -32 -96 -97 -161 -64 -32 -32 -33 -97 0 -32 33 32 32 -32 161 0 32 161 160 0 33 -32 64 -32 0 -65 32 -96 0 -32 0 -32 0 -33 -32 -64 -64 -96 -33 -97 0 -64 33 -32 0 -65 0 -32 0 -128 -33 -161 33 -64 0 -161 64 -129 0 -96 0 -97 -32 -128 0 -65 32 -128 128 -97 33 -96 0 -32 -33 -97 0 -161 -64 -32 0 -96 32 -129 32 -193 0 -32 0 -96 65 -32 32 -33 96 33 65 0 32 -33 32 -64 64 -64 129 0 96 0 33 64 96 -32 161 64 161 0 32 0 64 0 32 -64 129 -32 32 -65 0 -289 -193 -32 -32 32 -547 0 -96 -32 -257 -64 -161 -32 -65 -129 -32 -64 -32 -129 0 -32 32 -129 258 -128 289 -65 64 -193 129 0 32 -32 0 -64 -32 -161 -32 -32 0 -129 -193 0 -64 -32 -97 -161 -289 0 -258 -32 -64 0 -32 0 -129 65 -257 64 -64 96 0 65 -32 0 -65 0 -64 -32 -32 -33 0 -160 -32 -97 32 -96 64 -97 32 -386 -32 -96 0 -129 -128 -32 -33 -64 -128 -97 -32 -128 -32 -32 32 -97 0 -128 32 -97 32 0 32 -64 0 -322 0 -161 -32 -32 0 -160 0 -33 0 -192 32 -97 64 -96 0 -97 0 -64 -32 -257 -96 -258 32 -64 -32 -64 0 -32 -32 -129 -129 -64 -32 -33 -32 -32 0 -160 0 -97 32 -32 0 -32 -32 -129 -32 -96 0 -129 64 -193 -64 -128 32 -33 0 -64 -32 -96 0 0 -65 -97 -32 -193 -225 -96 -32 -97 -32 -64 -32 -64 32 -65 32 -96 0 -64 32 -65 64 -96 0 -64 0 -33 65 -96 128 -64 32 -65 65 -96 161 -32 0 -65 32 -32 0 -225 64 -257 64 -64 0 0 32 -97 65 -128 32 -33 32 -96 96 -64 0 -65 0 -64 0 0 65 -96 64 -65 64 -32 0 -64 0 0 33 -161 225 -32 -65 -64 -96 32 -32 32 -97 0 -128 -64 -161 96 -225 0 -32 0 -32 0 -33 -64 -96 -32 -64 0 -129 0 -161 -65 -64 0 -32z"
   id="path62" width="100%" fill="#00ffff" stroke="#ffffff" stroke-opacity="1" stroke-width="282.23677982" stroke-miterlimit="4" stroke-dasharray="none" />



</g>


</svg>
